<svg xmlns="http://www.w3.org/2000/svg" viewBox="0 0 1300 800" font-family="Arial, Helvetica, sans-serif">
  <!-- Background (dark, so the white signal wire is clearly visible) -->
  <rect width="1300" height="800" fill="#1e293b"/>

  <!-- Title -->
  <text x="650" y="45" text-anchor="middle" font-size="30" font-weight="bold" fill="#f8fafc">ORANGE PI ONE + COIN SLOT WIRING DIAGRAM</text>
  <text x="650" y="72" text-anchor="middle" font-size="15" fill="#94a3b8">AJC PisoWiFi — Coin Signal on GPIO Pin 3 (PA12) · 12V Supply via Buck Converter to 5V Port</text>

  <!-- ================= 12V POWER SUPPLY ================= -->
  <rect x="40" y="300" width="190" height="150" rx="8" fill="#111827" stroke="#000" stroke-width="2"/>
  <text x="135" y="355" text-anchor="middle" font-size="18" font-weight="bold" fill="#fff">12V DC</text>
  <text x="135" y="380" text-anchor="middle" font-size="18" font-weight="bold" fill="#fff">POWER SUPPLY</text>
  <!-- terminals -->
  <circle cx="230" cy="335" r="8" fill="#dc2626" stroke="#7f1d1d" stroke-width="2"/>
  <circle cx="230" cy="415" r="8" fill="#111827" stroke="#666" stroke-width="2"/>
  <text x="212" y="322" font-size="13" font-weight="bold" fill="#dc2626">+12V</text>
  <text x="214" y="442" font-size="13" font-weight="bold" fill="#cbd5e1">GND</text>

  <!-- ================= COIN SLOT ================= -->
  <rect x="340" y="110" width="210" height="170" rx="8" fill="#e5e7eb" stroke="#6b7280" stroke-width="2"/>
  <text x="445" y="150" text-anchor="middle" font-size="18" font-weight="bold" fill="#1f2937">COIN SLOT</text>
  <text x="445" y="172" text-anchor="middle" font-size="14" fill="#4b5563">(Coin Acceptor)</text>
  <circle cx="445" cy="215" r="18" fill="#9ca3af" stroke="#374151" stroke-width="2"/>
  <!-- terminals left -->
  <circle cx="340" cy="145" r="7" fill="#dc2626" stroke="#7f1d1d" stroke-width="2"/>
  <circle cx="340" cy="245" r="7" fill="#111827" stroke="#666" stroke-width="2"/>
  <text x="352" y="140" font-size="12" font-weight="bold" fill="#dc2626">+12V</text>
  <text x="352" y="262" font-size="12" font-weight="bold" fill="#1f2937">GND</text>
  <!-- signal terminal right -->
  <circle cx="550" cy="195" r="7" fill="#f59e0b" stroke="#b45309" stroke-width="2"/>
  <text x="500" y="270" font-size="12" font-weight="bold" fill="#b45309">SIGNAL</text>

  <!-- ================= BUCK CONVERTER ================= -->
  <rect x="340" y="520" width="210" height="120" rx="8" fill="#2563eb" stroke="#1e40af" stroke-width="2"/>
  <text x="445" y="565" text-anchor="middle" font-size="16" font-weight="bold" fill="#fff">BUCK CONVERTER</text>
  <text x="445" y="588" text-anchor="middle" font-size="13" fill="#dbeafe">Step-Down 12V → 5V</text>
  <!-- input terminals -->
  <circle cx="340" cy="550" r="7" fill="#dc2626" stroke="#7f1d1d" stroke-width="2"/>
  <circle cx="340" cy="610" r="7" fill="#111827" stroke="#666" stroke-width="2"/>
  <text x="352" y="545" font-size="12" font-weight="bold" fill="#fff">VIN+</text>
  <text x="352" y="630" font-size="12" font-weight="bold" fill="#fff">VIN−</text>
  <!-- output terminals -->
  <circle cx="550" cy="550" r="7" fill="#16a34a" stroke="#14532d" stroke-width="2"/>
  <circle cx="550" cy="610" r="7" fill="#111827" stroke="#666" stroke-width="2"/>
  <text x="495" y="545" font-size="12" font-weight="bold" fill="#dcfce7">VOUT+ 5V</text>
  <text x="505" y="630" font-size="12" font-weight="bold" fill="#dcfce7">VOUT−</text>

  <!-- ================= ORANGE PI ONE ================= -->
  <rect x="820" y="150" width="420" height="380" rx="10" fill="#f97316" stroke="#c2410c" stroke-width="3"/>
  <text x="1040" y="195" text-anchor="middle" font-size="22" font-weight="bold" fill="#fff">ORANGE PI ONE</text>
  <!-- GPIO header -->
  <rect x="835" y="220" width="46" height="286" rx="4" fill="#1f2937"/>
  <text x="858" y="212" text-anchor="middle" font-size="12" font-weight="bold" fill="#fff">40-PIN GPIO</text>
  <!-- pin grid 2 cols x 13 rows -->
  <g fill="#fbbf24">
    <circle cx="849" cy="235" r="5"/><circle cx="867" cy="235" r="5"/>
    <circle cx="849" cy="256" r="5"/><circle cx="867" cy="256" r="5"/>
    <circle cx="849" cy="277" r="5"/><circle cx="867" cy="277" r="5"/>
    <circle cx="849" cy="298" r="5"/><circle cx="867" cy="298" r="5"/>
    <circle cx="849" cy="319" r="5"/><circle cx="867" cy="319" r="5"/>
    <circle cx="849" cy="340" r="5"/><circle cx="867" cy="340" r="5"/>
    <circle cx="849" cy="361" r="5"/><circle cx="867" cy="361" r="5"/>
    <circle cx="849" cy="382" r="5"/><circle cx="867" cy="382" r="5"/>
    <circle cx="849" cy="403" r="5"/><circle cx="867" cy="403" r="5"/>
    <circle cx="849" cy="424" r="5"/><circle cx="867" cy="424" r="5"/>
    <circle cx="849" cy="445" r="5"/><circle cx="867" cy="445" r="5"/>
    <circle cx="849" cy="466" r="5"/><circle cx="867" cy="466" r="5"/>
    <circle cx="849" cy="487" r="5"/><circle cx="867" cy="487" r="5"/>
  </g>
  <!-- highlight PIN 3 (row2, LEFT/odd column) -->
  <circle cx="849" cy="256" r="9" fill="none" stroke="#dc2626" stroke-width="3"/>
  <text x="890" y="252" font-size="14" font-weight="bold" fill="#7f1d1d">PIN 3 (PA12)</text>
  <text x="890" y="268" font-size="12" fill="#fff">COIN SIGNAL IN</text>
  <text x="838" y="230" font-size="11" fill="#fde68a">1</text>
  <!-- micro USB power port -->
  <rect x="985" y="515" width="110" height="30" rx="6" fill="#374151" stroke="#111827" stroke-width="2"/>
  <text x="1040" y="536" text-anchor="middle" font-size="13" font-weight="bold" fill="#fff">5VDC PORT</text>
  <text x="1040" y="565" text-anchor="middle" font-size="12" fill="#fff">(micro-USB power)</text>

  <!-- ================= WIRES ================= -->
  <!-- +12V red: supply -> coin slot and buck VIN+ -->
  <path d="M238,335 H290 V145 H333" fill="none" stroke="#dc2626" stroke-width="5"/>
  <path d="M290,335 V550 H333" fill="none" stroke="#dc2626" stroke-width="5"/>
  <!-- GND black: supply -> coin slot and buck VIN- -->
  <path d="M238,415 H270 V245 H333" fill="none" stroke="#111827" stroke-width="5"/>
  <path d="M270,415 V610 H333" fill="none" stroke="#111827" stroke-width="5"/>
  <!-- Coin signal WHITE: coin slot SIGNAL -> GPIO PIN 3 (left/odd column) -->
  <path d="M557,195 H680 V256 H842" fill="none" stroke="#ffffff" stroke-width="5"/>
  <text x="600" y="185" font-size="14" font-weight="bold" fill="#f8fafc">COIN PULSE SIGNAL</text>
  <!-- No extra GND wire needed: coin slot and Orange Pi share the same 12V supply,
       so ground is already common through the supply and buck converter. -->
  <!-- 5V green: buck VOUT -> micro USB -->
  <path d="M557,550 H740 V640 H1040 V548" fill="none" stroke="#16a34a" stroke-width="5"/>
  <path d="M557,610 H720 V660 H1000 V548" fill="none" stroke="#111827" stroke-width="4"/>
  <text x="760" y="632" font-size="14" font-weight="bold" fill="#4ade80">+5V (micro-USB)</text>

  <!-- Wire legend -->
  <g font-size="13">
    <rect x="60" y="690" width="24" height="10" fill="#dc2626"/><text x="92" y="700" fill="#e2e8f0">+12V power</text>
    <rect x="210" y="690" width="24" height="10" fill="#111827" stroke="#64748b" stroke-width="1"/><text x="242" y="700" fill="#e2e8f0">GND (0V)</text>
    <rect x="340" y="690" width="24" height="10" fill="#ffffff"/><text x="372" y="700" fill="#e2e8f0">Coin pulse signal</text>
    <rect x="520" y="690" width="24" height="10" fill="#16a34a"/><text x="552" y="700" fill="#e2e8f0">+5V to Orange Pi</text>
  </g>

  <text x="720" y="660" font-size="13" font-weight="bold" fill="#4ade80">ℹ No extra GND wire needed: coin slot and Orange Pi share the same 12V supply.</text>
</svg>
